<?xml version="1.0" standalone="no"?>
<!DOCTYPE svg PUBLIC "-//W3C//DTD SVG 20010904//EN"
 "http://www.w3.org/TR/2001/REC-SVG-20010904/DTD/svg10.dtd">
<svg version="1.0" xmlns="http://www.w3.org/2000/svg"
 width="592.000000pt" height="592.000000pt" viewBox="0 0 592.000000 592.000000"
 preserveAspectRatio="xMidYMid meet">
<metadata>
Created by potrace 1.11, written by Peter Selinger 2001-2013
</metadata>
<g transform="translate(0.000000,592.000000) scale(0.100000,-0.100000)"
fill="#000000" stroke="none">
<path d="M0 2955 l0 -2885 2957 2 2957 3 3 2883 3 2882 -2960 0 -2960 0 0
-2885z m5697 3 c1 -2486 0 -2666 -15 -2670 -9 -2 -1241 -3 -2737 -3 l-2720 0
-2 2660 c-1 1463 -1 2665 1 2670 2 7 920 10 2737 10 l2734 0 2 -2667z"/>
<path d="M4409 4056 c0 -12 -1 -164 -1 -338 0 -175 -3 -318 -6 -318 -2 0 -17
13 -32 28 -43 46 -110 90 -180 118 -119 48 -307 38 -426 -24 -122 -63 -233
-222 -259 -372 -3 -18 -7 -36 -9 -39 -2 -3 -7 -31 -10 -61 -21 -209 11 -413
88 -547 57 -100 154 -181 261 -217 76 -25 197 -30 285 -12 95 20 169 58 231
118 27 26 52 48 54 48 2 0 5 -35 7 -77 l3 -77 105 0 105 0 0 895 0 894 -107 1
c-102 0 -108 -1 -109 -20z m-200 -711 c45 -22 135 -103 137 -122 0 -5 11 -29
23 -56 31 -67 48 -169 45 -268 -6 -208 -76 -343 -214 -411 -66 -33 -214 -31
-285 2 -89 42 -150 116 -181 218 -22 69 -27 116 -27 222 1 294 140 457 380
444 52 -2 86 -10 122 -29z"/>
<path d="M1765 3556 c-99 -32 -184 -101 -222 -181 -9 -19 -20 -35 -24 -35 -3
0 -6 47 -5 105 l1 105 -25 1 c-25 1 -136 1 -177 0 l-22 -1 0 -630 c1 -347 4
-630 7 -631 4 0 53 -2 110 -3 97 -2 102 -1 103 18 0 12 2 179 4 371 2 286 6
361 19 408 44 157 142 256 272 273 67 9 107 6 176 -11 l23 -6 0 102 0 103 -29
11 c-40 17 -162 17 -211 1z"/>
<path d="M2629 3566 c-2 -2 -22 -6 -44 -9 -285 -39 -467 -302 -460 -663 2
-136 20 -214 71 -319 33 -69 109 -159 169 -201 168 -117 454 -136 664 -43 17
8 31 17 31 21 0 5 6 8 13 8 18 0 132 93 132 107 0 7 -32 34 -71 61 l-71 49
-24 -20 c-37 -31 -147 -78 -198 -85 -82 -11 -194 -6 -246 12 -132 45 -222 163
-241 316 l-6 50 450 0 c366 0 451 2 455 13 4 11 3 83 -4 197 -1 8 -6 35 -11
60 -48 225 -176 374 -364 426 -53 14 -235 29 -245 20z m201 -206 c14 -8 28
-13 31 -12 12 3 97 -77 118 -111 11 -18 27 -53 36 -79 17 -52 29 -158 17 -159
-25 -3 -669 -4 -679 -1 -6 2 -10 11 -9 20 3 13 13 75 20 122 4 25 62 122 88
147 38 36 102 73 137 80 14 2 27 6 30 8 10 10 188 -3 211 -15z"/>
</g>
</svg>
