<svg id="Vrstva_1" data-name="Vrstva 1" xmlns="http://www.w3.org/2000/svg" viewBox="0 0 41 40"><defs><style>.cls-1{fill:#fc3c2d;}</style></defs><title>Kreslicí plátno 1</title><path class="cls-1" d="M41,40H0V0H41ZM.59,39.41H40.41V.59H.59Z"/><path class="cls-1" d="M12.77,20.19a8.63,8.63,0,0,0-1.28,6.18,9.1,9.1,0,0,0,17,3.14,8.8,8.8,0,0,0,.42-7.78,20.24,20.24,0,0,0-3.15-4.63c-.5-.6-1-1.25-1.65-2.12a3.64,3.64,0,0,1-.35-.65l-.19-.39-.27-.53,1.22.44,1,.38c.56.2.68-.1.73-.22a.41.41,0,0,0,0-.33.69.69,0,0,0-.4-.3l-.46-.18-.8-.32,1-.45,1-.46c.4-.19.36-.41.29-.59s-.17-.4-.67-.19l-1.35.59-1.14.5.26-.74a2.43,2.43,0,0,1,.12-.32l.18-.38a8.58,8.58,0,0,1,.55-1,2.33,2.33,0,0,0,.31-2.12,2.51,2.51,0,0,0-1.77-1.48,13.32,13.32,0,0,0-2.75-.42,9.08,9.08,0,0,0-3.84.54,2.59,2.59,0,0,0-1.12.75,1.34,1.34,0,0,0-.23,1.25,1.58,1.58,0,0,0,1.09,1,11.73,11.73,0,0,0,2.79.4,8.51,8.51,0,0,0,1.77-.19l.36-.06a.38.38,0,0,0,.26-.15A.49.49,0,0,0,21.81,9c0-.18-.12-.35-.53-.32l-.2,0-.17,0a8.34,8.34,0,0,1-3.84-.13,1.17,1.17,0,0,1-.48-.35l-.15-.15-.2-.17.2-.18.15-.15A1.25,1.25,0,0,1,17,7.25a8.86,8.86,0,0,1,3.87-.52,11.06,11.06,0,0,1,2.49.45,1.42,1.42,0,0,1,1,.78,1.65,1.65,0,0,1-.17,1.39c-.26.49-.5,1-.74,1.5s-.47,1-.72,1.46a1.35,1.35,0,0,1-.68.63,4.59,4.59,0,0,1-2.94,0,1.53,1.53,0,0,1-.76-.67,4.42,4.42,0,0,1-.28-.61A3,3,0,0,0,17.7,11a.79.79,0,0,0-.52-.21h-.07a.28.28,0,0,0-.2.13.51.51,0,0,0,0,.4,3.52,3.52,0,0,0,.31.69A2.11,2.11,0,0,1,17,14.48c-.32.47-.67.92-1,1.36l-.56.73-.81,1.06C14,18.46,13.35,19.31,12.77,20.19ZM16,17.33,17.73,15l.8-1.08.15,0a7,7,0,0,0,3.74,0l.21,0,.06.2a9.75,9.75,0,0,0,1.91,3l.48.6.37.47a29.17,29.17,0,0,1,2,2.67,8.09,8.09,0,0,1-5,12.24,7.89,7.89,0,0,1-1.92.24,8.21,8.21,0,0,1-5-1.76,8,8,0,0,1-3.17-6.28,8.42,8.42,0,0,1,1.41-4.91c.48-.7,1-1.38,1.51-2Z"/><path class="cls-1" d="M20.29,27.85v-.3a2.24,2.24,0,0,1-2.1-1.43.18.18,0,0,1,.14-.25l.51-.14c.12,0,.2,0,.25.15a1.41,1.41,0,0,0,1.2.78V24.57L20,24.46c-1.24-.39-1.56-1.17-1.56-1.77a1.89,1.89,0,0,1,1.87-1.81v-.37a.18.18,0,0,1,.2-.2h.19a.18.18,0,0,1,.2.2v.38a2,2,0,0,1,1.74,1.33.19.19,0,0,1-.14.26l-.48.15a.19.19,0,0,1-.25-.13,1.06,1.06,0,0,0-.87-.7v2l.34.13a2,2,0,0,1,1.62,1.76,1.93,1.93,0,0,1-2,1.87v.3a.18.18,0,0,1-.2.2h-.19A.18.18,0,0,1,20.29,27.85Zm0-6.07a.9.9,0,0,0-.85.88c0,.26.06.61.8.89l.05,0Zm1.53,3.95c0-.47-.36-.73-.89-.93l-.05,0v1.86C21.47,26.54,21.82,26.2,21.82,25.73Z"/></svg>