<?xml version="1.0" encoding="UTF-8" standalone="no"?>
<svg
   xmlns:dc="http://purl.org/dc/elements/1.1/"
   xmlns:cc="http://creativecommons.org/ns#"
   xmlns:rdf="http://www.w3.org/1999/02/22-rdf-syntax-ns#"
   xmlns:svg="http://www.w3.org/2000/svg"
   xmlns="http://www.w3.org/2000/svg"
   xmlns:sodipodi="http://sodipodi.sourceforge.net/DTD/sodipodi-0.dtd"
   xmlns:inkscape="http://www.inkscape.org/namespaces/inkscape"
   id="Vrstva_1"
   data-name="Vrstva 1"
   viewBox="0 0 69 68"
   version="1.1"
   sodipodi:docname="business_oriented_big.svg"
   width="69"
   height="68"
   inkscape:version="0.92.2 (5c3e80d, 2017-08-06)">
  <metadata
     id="metadata23">
    <rdf:RDF>
      <cc:Work
         rdf:about="">
        <dc:format>image/svg+xml</dc:format>
        <dc:type
           rdf:resource="http://purl.org/dc/dcmitype/StillImage" />
        <dc:title>Kreslicí plátno 1</dc:title>
      </cc:Work>
    </rdf:RDF>
  </metadata>
  <sodipodi:namedview
     pagecolor="#ffffff"
     bordercolor="#666666"
     borderopacity="1"
     objecttolerance="10"
     gridtolerance="10"
     guidetolerance="10"
     inkscape:pageopacity="0"
     inkscape:pageshadow="2"
     inkscape:window-width="1366"
     inkscape:window-height="745"
     id="namedview21"
     showgrid="false"
     fit-margin-top="0"
     fit-margin-left="0"
     fit-margin-right="0"
     fit-margin-bottom="0"
     inkscape:zoom="5.9"
     inkscape:cx="-7.0423729"
     inkscape:cy="20.677966"
     inkscape:window-x="288"
     inkscape:window-y="1072"
     inkscape:window-maximized="1"
     inkscape:current-layer="Vrstva_1" />
  <defs
     id="defs4">
    <style
       id="style2">.cls-1{fill:#fc3c2d;}</style>
    <style
       id="style837">.cls-1{fill:#fc3c2d;}</style>
  </defs>
  <title
     id="title6">Kreslicí plátno 1</title>
  <path
     style="fill:#fc3c2d;stroke-width:1.69144177"
     inkscape:connector-curvature="0"
     class="cls-1"
     d="M 69,68 H 0 V 0 H 69 Z M 0.99292683,66.997 H 68.007073 V 1.003 H 0.99292683 Z"
     id="path843" />
  <g
     id="g865"
     transform="translate(-3.2258279,3.1914905)">
    <path
       id="path845"
       d="M 24.916801,31.093544 A 14.313171,14.313171 0 0 0 22.793874,41.3433 15.092683,15.092683 0 0 0 50.988996,46.551105 14.595122,14.595122 0 0 0 51.685582,33.64769 33.568781,33.568781 0 0 0 46.461191,25.968665 c -0.829268,-0.995122 -1.658536,-2.07317 -2.736585,-3.516097 a 6.0370732,6.0370732 0 0 1 -0.580488,-1.078049 l -0.315122,-0.646829 -0.447805,-0.879025 2.023415,0.729757 1.658536,0.630243 c 0.928781,0.331708 1.127805,-0.165853 1.210732,-0.364878 a 0.68000001,0.68000001 0 0 0 0,-0.547317 1.1443903,1.1443903 0 0 0 -0.663414,-0.497561 l -0.762927,-0.298536 -1.32683,-0.530732 1.658537,-0.746341 1.658537,-0.762927 c 0.663414,-0.315122 0.597073,-0.68 0.480975,-0.978537 -0.116097,-0.298536 -0.281951,-0.663415 -1.111219,-0.315122 l -2.239025,0.978537 -1.890731,0.829268 0.431219,-1.227317 A 4.0302439,4.0302439 0 0 1 43.70802,16.21647 l 0.298537,-0.630244 a 14.230244,14.230244 0 0 1 0.912195,-1.658536 3.8643903,3.8643903 0 0 0 0.514147,-3.516098 4.1629269,4.1629269 0 0 0 -2.93561,-2.454634 22.091708,22.091708 0 0 0 -4.560976,-0.6965854 15.059512,15.059512 0 0 0 -6.36878,0.8956098 4.2956098,4.2956098 0 0 0 -1.857561,1.2439024 2.222439,2.222439 0 0 0 -0.381464,2.0731712 2.6204878,2.6204878 0 0 0 1.807805,1.658536 19.454634,19.454634 0 0 0 4.627317,0.663415 14.114146,14.114146 0 0 0 2.93561,-0.315122 l 0.597073,-0.09951 a 0.63024391,0.63024391 0 0 0 0.43122,-0.248781 0.81268293,0.81268293 0 0 0 0.182439,-0.597073 c 0,-0.298537 -0.199025,-0.580488 -0.879025,-0.530732 H 38.69924 38.417289 A 13.832195,13.832195 0 0 1 32.048508,11.788178 1.9404878,1.9404878 0 0 1 31.252411,11.20769 l -0.248781,-0.248781 -0.331707,-0.281951 0.331707,-0.298537 0.248781,-0.24878 a 2.0731707,2.0731707 0 0 1 0.68,-0.497561 14.694634,14.694634 0 0 1 6.418536,-0.8624391 18.343415,18.343415 0 0 1 4.129756,0.7463415 2.355122,2.355122 0 0 1 1.658537,1.2936586 2.7365854,2.7365854 0 0 1 -0.281951,2.305366 c -0.43122,0.812683 -0.829269,1.658536 -1.227317,2.487805 -0.398049,0.829268 -0.779513,1.658536 -1.194147,2.421463 a 2.2390244,2.2390244 0 0 1 -1.127805,1.044878 7.612683,7.612683 0 0 1 -4.876097,0 2.537561,2.537561 0 0 1 -1.260488,-1.111219 7.3307318,7.3307318 0 0 1 -0.46439,-1.011708 A 4.9756098,4.9756098 0 0 0 33.093386,15.851592 1.3102439,1.3102439 0 0 0 32.230947,15.5033 H 32.11485 a 0.46439025,0.46439025 0 0 0 -0.331708,0.215609 0.84585367,0.84585367 0 0 0 0,0.663415 5.8380488,5.8380488 0 0 0 0.514147,1.14439 3.4995122,3.4995122 0 0 1 -0.364878,4.096586 c -0.530732,0.779512 -1.11122,1.525853 -1.658537,2.255609 l -0.92878,1.210732 -1.343415,1.758049 c -1.044878,1.376585 -2.122927,2.786341 -3.084878,4.245854 z m 5.357073,-4.743415 2.869268,-3.86439 1.32683,-1.79122 h 0.24878 a 11.609756,11.609756 0 0 0 6.202927,0 h 0.348293 l 0.09951,0.331707 a 16.170732,16.170732 0 0 0 3.167805,4.97561 l 0.796097,0.995122 0.613659,0.779512 a 48.379513,48.379513 0 0 1 3.317073,4.428293 13.417561,13.417561 0 0 1 -8.292683,20.300488 13.085854,13.085854 0 0 1 -3.18439,0.398049 13.616585,13.616585 0 0 1 -8.292683,-2.919025 13.268293,13.268293 0 0 1 -5.257561,-10.415609 13.964878,13.964878 0 0 1 2.338536,-8.143415 c 0.796098,-1.160976 1.658537,-2.288781 2.504391,-3.317073 z"
       class="cls-1"
       inkscape:connector-curvature="0"
       style="fill:#fc3c2d;stroke-width:1.65853655" />
    <path
       id="path847"
       d="m 37.388996,43.797934 v -0.497561 a 3.715122,3.715122 0 0 1 -3.482927,-2.371707 0.29853659,0.29853659 0 0 1 0.232195,-0.414635 l 0.845854,-0.232195 c 0.199024,0 0.331707,0 0.414634,0.248781 a 2.3385366,2.3385366 0 0 0 1.990244,1.293658 V 38.357934 L 36.90802,38.175495 c -2.056585,-0.646829 -2.587317,-1.940488 -2.587317,-2.93561 a 3.1346342,3.1346342 0 0 1 3.101464,-3.001951 v -0.613659 a 0.29853659,0.29853659 0 0 1 0.331707,-0.331707 h 0.315122 a 0.29853659,0.29853659 0 0 1 0.331707,0.331707 v 0.630244 a 3.3170732,3.3170732 0 0 1 2.885854,2.205854 0.31512195,0.31512195 0 0 1 -0.232195,0.431219 l -0.796098,0.248781 a 0.31512195,0.31512195 0 0 1 -0.414634,-0.21561 1.7580488,1.7580488 0 0 0 -1.442927,-1.160976 v 3.317074 l 0.563903,0.215609 a 3.3170732,3.3170732 0 0 1 2.686829,2.919025 3.2009756,3.2009756 0 0 1 -3.317073,3.101463 v 0.497561 a 0.29853659,0.29853659 0 0 1 -0.331707,0.331708 h -0.315122 a 0.29853659,0.29853659 0 0 1 -0.298537,-0.348293 z m 0,-10.067317 a 1.4926829,1.4926829 0 0 0 -1.409756,1.459512 c 0,0.431219 0.09951,1.011707 1.326829,1.476098 h 0.08293 z m 2.537561,6.551219 c 0,-0.779512 -0.597073,-1.210731 -1.476098,-1.542439 h -0.08293 v 3.084878 c 0.978536,-0.199024 1.559024,-0.762926 1.559024,-1.542439 z"
       class="cls-1"
       inkscape:connector-curvature="0"
       style="fill:#fc3c2d;stroke-width:1.65853655" />
  </g>
</svg>
