<?xml version="1.0" encoding="UTF-8" standalone="no"?>
<svg
   xmlns:dc="http://purl.org/dc/elements/1.1/"
   xmlns:cc="http://creativecommons.org/ns#"
   xmlns:rdf="http://www.w3.org/1999/02/22-rdf-syntax-ns#"
   xmlns:svg="http://www.w3.org/2000/svg"
   xmlns="http://www.w3.org/2000/svg"
   xmlns:sodipodi="http://sodipodi.sourceforge.net/DTD/sodipodi-0.dtd"
   xmlns:inkscape="http://www.inkscape.org/namespaces/inkscape"
   id="Vrstva_1"
   data-name="Vrstva 1"
   viewBox="0 0 69 68"
   version="1.1"
   sodipodi:docname="effectivity_big.svg"
   width="69"
   height="68"
   inkscape:version="0.92.2 (5c3e80d, 2017-08-06)">
  <metadata
     id="metadata23">
    <rdf:RDF>
      <cc:Work
         rdf:about="">
        <dc:format>image/svg+xml</dc:format>
        <dc:type
           rdf:resource="http://purl.org/dc/dcmitype/StillImage" />
        <dc:title>Kreslicí plátno 1</dc:title>
      </cc:Work>
    </rdf:RDF>
  </metadata>
  <sodipodi:namedview
     pagecolor="#ffffff"
     bordercolor="#666666"
     borderopacity="1"
     objecttolerance="10"
     gridtolerance="10"
     guidetolerance="10"
     inkscape:pageopacity="0"
     inkscape:pageshadow="2"
     inkscape:window-width="1366"
     inkscape:window-height="745"
     id="namedview21"
     showgrid="false"
     fit-margin-top="0"
     fit-margin-left="0"
     fit-margin-right="0"
     fit-margin-bottom="0"
     inkscape:zoom="5.9"
     inkscape:cx="18.542373"
     inkscape:cy="33.302945"
     inkscape:window-x="288"
     inkscape:window-y="1072"
     inkscape:window-maximized="1"
     inkscape:current-layer="Vrstva_1" />
  <defs
     id="defs4">
    <style
       id="style2">.cls-1{fill:#fc3c2d;}</style>
  </defs>
  <title
     id="title6">Kreslicí plátno 1</title>
  <path
     class="cls-1"
     d="M 69,68 H 0 V 0 H 69 Z M 0.99292682,66.997 H 68.007072 V 1.002999 H 0.99292682 Z"
     id="path8"
     inkscape:connector-curvature="0"
     style="fill:#fc3c2d;stroke-width:1.69144177" />
  <g
     id="g835"
     transform="translate(0.50484844,27.133633)">
    <path
       style="fill:#fc3c2d;stroke-width:1.65853655"
       inkscape:connector-curvature="0"
       id="path10"
       d="M 52.82439,0.34439024 A 16.402927,16.402927 0 0 0 25.740488,-10.651707 16.087805,16.087805 0 0 0 20.217561,0.5102439 L 15.109268,11.672195 h 5.091708 v 7.01561 a 4.4780488,4.4780488 0 0 0 4.478048,4.461463 h 6.634147 v 5.240976 h 1.39317 v -5.240976 0 -1.39317 0 0 h -1.39317 v 0 H 24.679024 A 3.1180488,3.1180488 0 0 1 21.560976,18.67122 V 10.279024 H 17.199024 L 21.461463,0.99121951 V 0.72585366 A 14.694634,14.694634 0 0 1 26.536585,-9.5902439 14.926829,14.926829 0 0 1 51.281951,0.49365854 14.180488,14.180488 0 0 1 49.623415,8.4546341 L 49.490732,9.0019512 50.668293,9.6653659 51,9.0517073 a 15.440976,15.440976 0 0 0 1.82439,-8.70731706 z"
       class="cls-1" />
    <rect
       style="fill:#fc3c2d;stroke-width:1.65853655"
       id="rect12"
       height="16.585365"
       width="1.3931707"
       y="11.755121"
       x="47.218536"
       class="cls-1" />
    <path
       style="fill:#fc3c2d;stroke-width:1.65853655"
       inkscape:connector-curvature="0"
       id="path14"
       d="m 30.036098,-2.1931707 a 3.3170732,3.3170732 0 1 0 3.317073,3.3170731 3.3170732,3.3170732 0 0 0 -3.317073,-3.3170731 z m 1.890731,3.3170731 a 1.8907317,1.8907317 0 1 1 -1.890731,-1.9736585 1.9073171,1.9073171 0 0 1 1.890731,1.9073171 z"
       class="cls-1" />
    <path
       style="fill:#fc3c2d;stroke-width:1.65853655"
       inkscape:connector-curvature="0"
       id="path16"
       d="m 39.68878,2.9317073 a 0.51414634,0.51414634 0 0 0 -0.746341,-0.1990244 2.6039024,2.6039024 0 0 1 -1.194146,0.2985366 1.9736585,1.9736585 0 1 1 0,-3.9307317 2.5873171,2.5873171 0 0 1 1.194146,0.29853659 A 0.51414634,0.51414634 0 0 0 39.68878,-0.8 v -0.13268293 a 0.53073171,0.53073171 0 0 0 -0.182439,-0.74634147 3.3170732,3.3170732 0 1 0 0,5.44 0.49756098,0.49756098 0 0 0 0.116098,-0.6965854 z"
       class="cls-1" />
    <path
       style="fill:#fc3c2d;stroke-width:1.65853655"
       inkscape:connector-curvature="0"
       id="path18"
       d="m 41.861463,-2.0936585 a 0.51414634,0.51414634 0 0 0 -0.547317,0.547317 v 5.2243903 a 0.51414634,0.51414634 0 0 0 0.547317,0.5473171 H 43.52 a 3.1678049,3.1678049 0 1 0 0,-6.3356098 z M 43.52,-0.86634146 a 1.9404878,1.9404878 0 0 1 0,3.88097556 h -0.762927 v -3.89756093 z"
       class="cls-1" />
  </g>
</svg>
