<svg id="Vrstva_1" data-name="Vrstva 1" xmlns="http://www.w3.org/2000/svg" viewBox="0 0 41 40"><defs><style>.cls-1{fill:#fc3c2d;}</style></defs><title>Kreslicí plátno 1</title><path class="cls-1" d="M41,40H0V0H41ZM.59,39.41H40.41V.59H.59Z"/><path class="cls-1" d="M31.85,16.09A9.89,9.89,0,0,0,15.52,9.46a9.7,9.7,0,0,0-3.33,6.73L9.11,22.92h3.07v4.23a2.7,2.7,0,0,0,2.7,2.69h4V33h.84V29.84h0V29h0v0h-.84v0h-4A1.88,1.88,0,0,1,13,27.14V22.08H10.37l2.57-5.6v-.16A8.86,8.86,0,0,1,16,10.1a9,9,0,0,1,14.92,6.08,8.55,8.55,0,0,1-1,4.8l-.08.33.71.4.2-.37A9.31,9.31,0,0,0,31.85,16.09Z"/><rect class="cls-1" x="28.47" y="22.97" width="0.84" height="10"/><path class="cls-1" d="M18.11,14.56a2,2,0,1,0,2,2A2,2,0,0,0,18.11,14.56Zm1.14,2a1.14,1.14,0,1,1-1.14-1.19A1.15,1.15,0,0,1,19.25,16.52Z"/><path class="cls-1" d="M23.93,17.65a.31.31,0,0,0-.45-.12,1.57,1.57,0,0,1-.72.18,1.19,1.19,0,1,1,0-2.37,1.56,1.56,0,0,1,.72.18.31.31,0,0,0,.45-.12l0-.08a.32.32,0,0,0-.11-.45,2,2,0,1,0,0,3.28.3.3,0,0,0,.07-.42Z"/><path class="cls-1" d="M25.24,14.62a.31.31,0,0,0-.33.33V18.1a.31.31,0,0,0,.33.33h1a1.91,1.91,0,1,0,0-3.82Zm1,.74a1.17,1.17,0,0,1,0,2.34h-.46V15.35Z"/></svg>