<?xml version="1.0" encoding="UTF-8"?>
<svg width="145px" height="72px" viewBox="0 0 145 72" version="1.1" xmlns="http://www.w3.org/2000/svg" xmlns:xlink="http://www.w3.org/1999/xlink">
    <!-- Generator: sketchtool 50 (54983) - http://www.bohemiancoding.com/sketch -->
    <title>7F7374E2-10B4-4D1D-BE77-3FC5FEFDEC45</title>
    <desc>Created with sketchtool.</desc>
    <defs></defs>
    <g id="Page-1" stroke="none" stroke-width="1" fill="none" fill-rule="evenodd">
        <g id="1" transform="translate(-144.000000, -71.000000)" fill="#FF3E3E" fill-rule="nonzero">
            <g id="logo2" transform="translate(144.000000, 71.000000)">
                <path d="M18.8830798,36.6420896 C18.8830798,32.5961194 20.9423004,30.9116418 23.2027567,30.9116418 C23.8160239,30.9151582 24.4237326,31.0252399 24.9973384,31.2367164 L24.9973384,28.5823881 C24.4629417,28.412545 23.9053776,28.3219803 23.343346,28.3137313 C21.2841255,28.3137313 19.7211027,29.4797015 18.9905894,31.2931343 L18.8830798,31.2931343 L18.8830798,28.5474627 L16.1264259,28.5474627 L16.1264259,44.3471642 L18.8830798,44.3471642 L18.8830798,36.6420896 Z" id="Shape"></path>
                <path d="M34.06673,44.540597 C36.3244297,44.540597 38.4525665,43.8608955 40.1451521,42.0474627 L38.2154943,40.7202985 C37.0852662,41.7573134 35.6242395,42.1441791 34.1301331,42.1441791 C30.8414449,42.1441791 29.4796578,39.9438806 29.2811787,37.3083582 L40.5834601,37.3083582 C40.6418174,36.987498 40.6640024,36.6613811 40.6496198,36.3358209 C40.6496198,32.3543284 38.855038,28.3379104 33.7386882,28.3379104 C28.7160646,28.3540299 26.4638783,32.238806 26.4638783,36.5131343 C26.4638783,40.8814925 28.8511407,44.540597 34.06673,44.540597 Z M33.6670152,30.6832836 C36.5890684,30.6832836 37.9205323,32.7868657 37.9536122,35.4761194 L29.2205323,35.4761194 C29.3142586,33.1119403 30.4775665,30.6832836 33.6670152,30.6832836 Z" id="Shape"></path>
                <path d="M49.945057,44.6695522 C52.3047529,44.6695522 53.8980989,43.6647761 54.9070342,42.4020896 L55.0393536,42.4020896 L55.0393536,44.3444776 L57.7629278,44.3444776 L57.7629278,22.0083582 L55.0062738,22.0083582 L55.0062738,30.5220896 L54.9070342,30.5220896 C53.7429207,29.0289917 51.9126448,28.1731155 49.9891635,28.2223881 C45.5371673,28.2223881 43.4117871,31.8170149 43.4117871,36.4459701 C43.4117871,41.0749254 45.5261407,44.6695522 49.945057,44.6695522 Z M50.74173,30.7155224 C53.4322243,30.7155224 55.1275665,32.9507463 55.1275665,36.4459701 C55.1275665,39.941194 53.4322243,42.1791045 50.74173,42.1791045 C47.7094106,42.1791045 46.2235741,39.9438806 46.2235741,36.4486567 C46.2235741,32.9534328 47.7204373,30.7155224 50.74173,30.7155224 Z" id="Shape"></path>
                <path d="M89.1253802,40.2152239 C89.1253802,43.0307463 90.4540875,44.3928358 93.2438213,44.3928358 L95.6558935,44.3928358 L95.6558935,42.1791045 L94.0625475,42.1791045 C92.4361217,42.1791045 91.8572243,41.5638806 91.8572243,39.6859701 L91.8572243,30.6268657 L95.9425856,30.6268657 L95.9425856,28.5877612 L91.8820342,28.5877612 L91.8820342,23.6713433 L89.1253802,23.6713433 L89.1253802,27.2659701 C89.1253802,28.1068657 88.6264259,28.5931343 87.7305133,28.5931343 L86.5589354,28.5931343 L86.5589354,30.6268657 L89.1171103,30.6268657 L89.1253802,40.2152239 Z" id="Shape"></path>
                <path d="M106.131179,35.1644776 C104.703232,35.4895522 102.94173,35.6507463 101.480703,36.1370149 C99.5868821,36.7844776 98.2250951,37.918209 98.2250951,40.1829851 C98.2250951,42.9662687 100.317395,44.7152239 103.606084,44.7152239 C106.131179,44.7152239 108.09116,43.6137313 109.020152,41.8674627 L109.185551,41.8674627 L109.552186,44.3928358 L112.077281,44.3928358 L111.68308,40.8358209 L111.68308,33.1576119 C111.68308,29.8880597 108.794106,28.321791 105.469582,28.321791 C102.547529,28.321791 100.121673,29.52 98.5586502,31.5268657 L100.617871,32.9829851 C101.720532,31.4946269 103.57576,30.6510448 105.601901,30.6510448 C107.628042,30.6510448 109.055989,31.4919403 109.055989,32.8862687 C109.058745,34.1919403 107.696958,34.7749254 106.131179,35.1644776 Z M109.122148,35.8764179 L109.122148,37.3432836 C109.122148,41.3247761 106.299335,42.4262687 104.240114,42.4262687 C102.412452,42.4262687 101.149905,41.5531343 101.149905,40.0943284 C101.149905,38.9283582 101.946578,38.3131343 102.944487,37.9450746 C104.504753,37.3298507 107.330323,37.2653731 108.989829,35.8737313 L109.122148,35.8764179 Z" id="Shape"></path>
                <path d="M121.879943,44.0355224 C124.085266,44.0355224 125.799905,43.1301493 126.797814,41.6713433 L126.797814,43.678209 C126.797814,46.1391045 125.036312,47.7241791 122.544297,47.7241791 C120.451996,47.7241791 118.624335,46.7516418 117.893821,45.1343284 L115.467966,46.3002985 C116.465875,48.5355224 119.255608,49.9916418 122.577376,49.9916418 C126.761977,49.9916418 129.554468,47.6274627 129.554468,43.678209 L129.554468,28.5931343 L126.764734,28.5931343 L126.764734,30.5032836 L126.566255,30.5032836 C125.571103,28.9826866 124.00808,28.3029851 122.048099,28.3029851 C117.496863,28.3029851 115.239163,31.7337313 115.239163,36.0940299 C115.239163,40.4543284 117.563023,44.0355224 121.879943,44.0355224 Z M122.544297,30.6026866 C125.700665,30.6026866 126.954943,33.4504478 126.954943,36.4620896 C126.954943,39.4737313 125.692395,41.8352239 122.544297,41.8352239 C119.396198,41.8352239 118.026141,39.2131343 118.026141,36.1692537 C118.026141,33.1898507 119.387928,30.6 122.544297,30.6 L122.544297,30.6026866 Z" id="Shape"></path>
                <path d="M73.878327,0 L0,0 L0,72 L145,72 L145,0 L73.878327,0 Z M71.121673,69.3134328 L2.75665399,69.3134328 L2.75665399,2.68656716 L71.121673,2.68656716 L71.121673,69.3134328 Z M142.243346,69.3134328 L73.878327,69.3134328 L73.878327,2.68656716 L142.243346,2.68656716 L142.243346,69.3134328 Z" id="Shape"></path>
            </g>
        </g>
    </g>
</svg>