<svg id="Vrstva_1" data-name="Vrstva 1" xmlns="http://www.w3.org/2000/svg" viewBox="0 0 41 40"><defs><style>.cls-1{fill:#fc3c2d;}</style></defs><title>Kreslicí plátno 1</title><path class="cls-1" d="M41,40H0V0H41ZM.59,39.41H40.41V.59H.59Z"/><g id="qkBzs8"><path class="cls-1" d="M20.55,33.37h-.41L20.05,33a1.23,1.23,0,0,1-.06-.29l-.12-2.11c-.05-1-.11-1.95-.17-2.92l-.05-.9c-.11-1.76-.21-3.53-.36-5.29a5.47,5.47,0,0,0-.37-1.36.78.78,0,0,0-.52-.48.71.71,0,0,0-1,.41,6.61,6.61,0,0,0-.37,1.58,18.68,18.68,0,0,0,0,4.68,1.47,1.47,0,0,1,0,.39l0,.37-.53.18L16.27,27l-.08-.12A1.4,1.4,0,0,1,16,26.5L15.82,26a18.86,18.86,0,0,1-.49-2,16.42,16.42,0,0,1-.11-4.4,3.36,3.36,0,0,0-.08-1,.7.7,0,0,0-.63-.58.78.78,0,0,0-.84.36,3,3,0,0,0-.39,1.28,20.42,20.42,0,0,0,.08,5.4,2.94,2.94,0,0,1,0,.57.7.7,0,0,1-.12.33l-.6.16a1.55,1.55,0,0,1-.24-.22.79.79,0,0,1-.14-.27,17.53,17.53,0,0,1-1.13-5.85,13,13,0,0,1,.11-1.42c0-.2,0-.4.06-.6s0-.13,0-.19,0-.12,0-.19c0-.51-.17-.66-.37-.74a.82.82,0,0,0-.92.23,2.7,2.7,0,0,0-.59,1.61,18.34,18.34,0,0,0,.29,5.16,3.28,3.28,0,0,1,0,.45l0,.46-.65.23L9,24.42a2,2,0,0,1-.2-.31,12,12,0,0,1-1.25-4.35,8.56,8.56,0,0,1,.3-3.56,3.66,3.66,0,0,1,2.84-2.7,5.35,5.35,0,0,1,3,.31,13,13,0,0,1,2.63,1.47l.13.09a3.26,3.26,0,0,0,1,.47A.66.66,0,0,0,18,15.7.67.67,0,0,0,18.1,15a3.16,3.16,0,0,0-.43-.79c-.11-.17-.24-.33-.37-.5a7,7,0,0,1-.52-.73,4.27,4.27,0,0,1,5.37-6,4.29,4.29,0,0,1,1.67,6.63l-.18.22a6.61,6.61,0,0,0-.45.59,2.36,2.36,0,0,0-.32.66.66.66,0,0,0,.13.64.63.63,0,0,0,.62.14,3.17,3.17,0,0,0,1-.46l.21-.14a12.8,12.8,0,0,1,2.57-1.43,5.59,5.59,0,0,1,2.57-.37A3.61,3.61,0,0,1,33.12,16a8.5,8.5,0,0,1,.34,4,12,12,0,0,1-1.14,3.95,3.76,3.76,0,0,1-.24.41l-.26.42-.56-.18-.1-.33v-.17a3.11,3.11,0,0,1,0-.45,18.36,18.36,0,0,0,.3-5.1A2.9,2.9,0,0,0,31,16.95a.83.83,0,0,0-.92-.34.54.54,0,0,0-.43.5,3.11,3.11,0,0,0,.05.69,13.18,13.18,0,0,1-.32,5.61c-.17.67-.38,1.34-.58,2l-.07.22a1,1,0,0,1-.26.38l-.07.07-.68-.22a1,1,0,0,1-.09-.43c0-.41.06-.83.1-1.24.05-.61.1-1.22.13-1.83a12.54,12.54,0,0,0-.23-3.23,2.51,2.51,0,0,0-.2-.57.82.82,0,0,0-.93-.53.78.78,0,0,0-.68.75,9.7,9.7,0,0,0,0,1.47A14.7,14.7,0,0,1,25,26.46a3.07,3.07,0,0,1-.2.41l-.21.4-.7-.12,0-.46a2.19,2.19,0,0,1,0-.43,19.29,19.29,0,0,0-.09-5.39,2.65,2.65,0,0,0-.25-.78.82.82,0,0,0-.64-.47.85.85,0,0,0-.75.35,2.82,2.82,0,0,0-.49,1.59c-.13,1.89-.24,3.78-.35,5.67L21,32.72a1.19,1.19,0,0,1-.06.29l-.07.28ZM18.09,18.87a1.75,1.75,0,0,1,.55.09,1.5,1.5,0,0,1,1,.9A6.18,6.18,0,0,1,20,21.45c.14,1.77.25,3.53.36,5.3l.05.9.05.85.08-1.32c.11-1.89.23-3.78.36-5.67a3.54,3.54,0,0,1,.65-2A1.6,1.6,0,0,1,23,18.87a1.55,1.55,0,0,1,1.24.88,3.41,3.41,0,0,1,.32,1,21,21,0,0,1,.23,3.9,15.65,15.65,0,0,0,.28-4.39,10.42,10.42,0,0,1,0-1.58,1.54,1.54,0,0,1,1.31-1.42,1.55,1.55,0,0,1,1.73.94,3.29,3.29,0,0,1,.25.74,13.28,13.28,0,0,1,.24,3.42c0,.47-.06.94-.1,1.41q.08-.28.15-.55a12.46,12.46,0,0,0,.31-5.3,3.83,3.83,0,0,1-.06-.86,1.29,1.29,0,0,1,1-1.2,1.56,1.56,0,0,1,1.68.62,3.68,3.68,0,0,1,.67,2,18,18,0,0,1-.08,3.88,11.13,11.13,0,0,0,.54-2.43,7.79,7.79,0,0,0-.3-3.62,2.87,2.87,0,0,0-2.54-2.1,4.85,4.85,0,0,0-2.23.33,12.08,12.08,0,0,0-2.42,1.35L25,16a3.87,3.87,0,0,1-1.21.57,1.37,1.37,0,0,1-1.33-.34,1.41,1.41,0,0,1-.32-1.36,3.08,3.08,0,0,1,.41-.88,7.51,7.51,0,0,1,.49-.65l.17-.21a3.52,3.52,0,1,0-5.8-.51,6.2,6.2,0,0,0,.47.65c.14.18.28.36.4.54a3.76,3.76,0,0,1,.52,1,1.42,1.42,0,0,1-.29,1.41,1.4,1.4,0,0,1-1.37.34A4,4,0,0,1,16,16l-.13-.09a12.26,12.26,0,0,0-2.47-1.39,4.64,4.64,0,0,0-2.55-.27,2.89,2.89,0,0,0-2.27,2.2,7.84,7.84,0,0,0-.27,3.26,11.29,11.29,0,0,0,.56,2.63,17.86,17.86,0,0,1-.07-3.93,3.47,3.47,0,0,1,.77-2,1.58,1.58,0,0,1,1.77-.43,1.35,1.35,0,0,1,.83,1.48c0,.08,0,.17,0,.25l0,.15c0,.21,0,.41-.07.62a12.23,12.23,0,0,0-.1,1.34,14.78,14.78,0,0,0,.57,3.93,19.17,19.17,0,0,1,.07-4.15,3.58,3.58,0,0,1,.52-1.6,1.51,1.51,0,0,1,1.57-.68,1.44,1.44,0,0,1,1.25,1.16,4.11,4.11,0,0,1,.1,1.24,15.72,15.72,0,0,0,.1,4.2c0,.2.08.41.13.61a20.28,20.28,0,0,1,.13-2.91,7.37,7.37,0,0,1,.41-1.76A1.42,1.42,0,0,1,18.09,18.87Z"/></g></svg>