<?xml version="1.0" encoding="UTF-8" standalone="no"?>
<svg
   xmlns:dc="http://purl.org/dc/elements/1.1/"
   xmlns:cc="http://creativecommons.org/ns#"
   xmlns:rdf="http://www.w3.org/1999/02/22-rdf-syntax-ns#"
   xmlns:svg="http://www.w3.org/2000/svg"
   xmlns="http://www.w3.org/2000/svg"
   xmlns:sodipodi="http://sodipodi.sourceforge.net/DTD/sodipodi-0.dtd"
   xmlns:inkscape="http://www.inkscape.org/namespaces/inkscape"
   id="Vrstva_1"
   data-name="Vrstva 1"
   viewBox="0 0 69 68"
   version="1.1"
   sodipodi:docname="market_connectors_big.svg"
   width="69"
   height="68"
   inkscape:version="0.92.2 (5c3e80d, 2017-08-06)">
  <metadata
     id="metadata16">
    <rdf:RDF>
      <cc:Work
         rdf:about="">
        <dc:format>image/svg+xml</dc:format>
        <dc:type
           rdf:resource="http://purl.org/dc/dcmitype/StillImage" />
        <dc:title>Kreslicí plátno 1</dc:title>
      </cc:Work>
    </rdf:RDF>
  </metadata>
  <sodipodi:namedview
     pagecolor="#ffffff"
     bordercolor="#666666"
     borderopacity="1"
     objecttolerance="10"
     gridtolerance="10"
     guidetolerance="10"
     inkscape:pageopacity="0"
     inkscape:pageshadow="2"
     inkscape:window-width="1920"
     inkscape:window-height="1057"
     id="namedview14"
     showgrid="false"
     fit-margin-top="0"
     fit-margin-left="0"
     fit-margin-right="0"
     fit-margin-bottom="0"
     inkscape:zoom="5.9"
     inkscape:cx="20.5"
     inkscape:cy="20"
     inkscape:window-x="-8"
     inkscape:window-y="-8"
     inkscape:window-maximized="1"
     inkscape:current-layer="Vrstva_1" />
  <defs
     id="defs4">
    <style
       id="style2">.cls-1{fill:#fc3c2d;}</style>
  </defs>
  <title
     id="title6">Kreslicí plátno 1</title>
  <path
     class="cls-1"
     d="M 69,68 H 0 V 0 H 69 Z M 0.99292683,66.997 H 68.007073 V 1.003 H 0.99292683 Z"
     id="path8"
     inkscape:connector-curvature="0"
     style="fill:#fc3c2d;stroke-width:1.69144189" />
  <g
     id="qkBzs8"
     transform="matrix(1.6829268,0,0,1.7,-0.03537815,-0.024404)">
    <path
       class="cls-1"
       d="M 20.55,33.37 H 20.14 L 20.05,33 A 1.23,1.23 0 0 1 19.99,32.71 L 19.87,30.6 c -0.05,-1 -0.11,-1.95 -0.17,-2.92 l -0.05,-0.9 c -0.11,-1.76 -0.21,-3.53 -0.36,-5.29 a 5.47,5.47 0 0 0 -0.37,-1.36 0.78,0.78 0 0 0 -0.52,-0.48 0.71,0.71 0 0 0 -1,0.41 6.61,6.61 0 0 0 -0.37,1.58 18.68,18.68 0 0 0 0,4.68 1.47,1.47 0 0 1 0,0.39 v 0.37 L 16.5,27.26 16.27,27 16.19,26.88 A 1.4,1.4 0 0 1 16,26.5 L 15.82,26 a 18.86,18.86 0 0 1 -0.49,-2 16.42,16.42 0 0 1 -0.11,-4.4 3.36,3.36 0 0 0 -0.08,-1 0.7,0.7 0 0 0 -0.63,-0.58 0.78,0.78 0 0 0 -0.84,0.36 3,3 0 0 0 -0.39,1.28 20.42,20.42 0 0 0 0.08,5.4 2.94,2.94 0 0 1 0,0.57 0.7,0.7 0 0 1 -0.12,0.33 l -0.6,0.16 A 1.55,1.55 0 0 1 12.4,25.9 0.79,0.79 0 0 1 12.26,25.63 17.53,17.53 0 0 1 11.13,19.78 13,13 0 0 1 11.24,18.36 c 0,-0.2 0,-0.4 0.06,-0.6 0.06,-0.2 0,-0.13 0,-0.19 0,-0.06 0,-0.12 0,-0.19 0,-0.51 -0.17,-0.66 -0.37,-0.74 a 0.82,0.82 0 0 0 -0.92,0.23 2.7,2.7 0 0 0 -0.59,1.61 18.34,18.34 0 0 0 0.29,5.16 3.28,3.28 0 0 1 0,0.45 v 0.46 L 9.06,24.78 9,24.42 a 2,2 0 0 1 -0.2,-0.31 12,12 0 0 1 -1.25,-4.35 8.56,8.56 0 0 1 0.3,-3.56 3.66,3.66 0 0 1 2.84,-2.7 5.35,5.35 0 0 1 3,0.31 13,13 0 0 1 2.63,1.47 l 0.13,0.09 a 3.26,3.26 0 0 0 1,0.47 A 0.66,0.66 0 0 0 18,15.7 0.67,0.67 0 0 0 18.1,15 3.16,3.16 0 0 0 17.67,14.21 c -0.11,-0.17 -0.24,-0.33 -0.37,-0.5 a 7,7 0 0 1 -0.52,-0.73 4.27,4.27 0 0 1 5.37,-6 4.29,4.29 0 0 1 1.67,6.63 l -0.18,0.22 a 6.61,6.61 0 0 0 -0.45,0.59 2.36,2.36 0 0 0 -0.32,0.66 0.66,0.66 0 0 0 0.13,0.64 0.63,0.63 0 0 0 0.62,0.14 3.17,3.17 0 0 0 1,-0.46 l 0.21,-0.14 a 12.8,12.8 0 0 1 2.57,-1.43 5.59,5.59 0 0 1 2.57,-0.37 3.61,3.61 0 0 1 3.15,2.54 8.5,8.5 0 0 1 0.34,4 12,12 0 0 1 -1.14,3.95 3.76,3.76 0 0 1 -0.24,0.41 l -0.26,0.42 -0.56,-0.18 -0.1,-0.33 V 24.1 a 3.11,3.11 0 0 1 0,-0.45 18.36,18.36 0 0 0 0.3,-5.1 2.9,2.9 0 0 0 -0.46,-1.6 0.83,0.83 0 0 0 -0.92,-0.34 0.54,0.54 0 0 0 -0.43,0.5 3.11,3.11 0 0 0 0.05,0.69 13.18,13.18 0 0 1 -0.32,5.61 c -0.17,0.67 -0.38,1.34 -0.58,2 l -0.07,0.22 a 1,1 0 0 1 -0.26,0.38 l -0.07,0.07 -0.68,-0.22 a 1,1 0 0 1 -0.09,-0.43 c 0,-0.41 0.06,-0.83 0.1,-1.24 0.05,-0.61 0.1,-1.22 0.13,-1.83 a 12.54,12.54 0 0 0 -0.23,-3.23 2.51,2.51 0 0 0 -0.2,-0.57 0.82,0.82 0 0 0 -0.93,-0.53 0.78,0.78 0 0 0 -0.68,0.75 9.7,9.7 0 0 0 0,1.47 14.7,14.7 0 0 1 -0.82,6.21 3.07,3.07 0 0 1 -0.2,0.41 l -0.21,0.4 -0.7,-0.12 v -0.46 a 2.19,2.19 0 0 1 0,-0.43 19.29,19.29 0 0 0 -0.09,-5.39 2.65,2.65 0 0 0 -0.25,-0.78 0.82,0.82 0 0 0 -0.64,-0.47 0.85,0.85 0 0 0 -0.75,0.35 2.82,2.82 0 0 0 -0.49,1.59 c -0.13,1.89 -0.24,3.78 -0.35,5.67 L 21,32.72 a 1.19,1.19 0 0 1 -0.06,0.29 l -0.07,0.28 z m -2.46,-14.5 a 1.75,1.75 0 0 1 0.55,0.09 1.5,1.5 0 0 1 1,0.9 6.18,6.18 0 0 1 0.36,1.59 c 0.14,1.77 0.25,3.53 0.36,5.3 l 0.05,0.9 0.05,0.85 0.08,-1.32 c 0.11,-1.89 0.23,-3.78 0.36,-5.67 a 3.54,3.54 0 0 1 0.65,-2 1.6,1.6 0 0 1 1.45,-0.64 1.55,1.55 0 0 1 1.24,0.88 3.41,3.41 0 0 1 0.32,1 21,21 0 0 1 0.23,3.9 15.65,15.65 0 0 0 0.28,-4.39 10.42,10.42 0 0 1 0,-1.58 1.54,1.54 0 0 1 1.31,-1.42 1.55,1.55 0 0 1 1.73,0.94 3.29,3.29 0 0 1 0.25,0.74 13.28,13.28 0 0 1 0.24,3.42 c 0,0.47 -0.06,0.94 -0.1,1.41 q 0.08,-0.28 0.15,-0.55 a 12.46,12.46 0 0 0 0.31,-5.3 3.83,3.83 0 0 1 -0.06,-0.86 1.29,1.29 0 0 1 1,-1.2 1.56,1.56 0 0 1 1.68,0.62 3.68,3.68 0 0 1 0.67,2 18,18 0 0 1 -0.08,3.88 11.13,11.13 0 0 0 0.54,-2.43 7.79,7.79 0 0 0 -0.3,-3.62 2.87,2.87 0 0 0 -2.54,-2.1 4.85,4.85 0 0 0 -2.23,0.33 12.08,12.08 0 0 0 -2.42,1.35 L 25,16 a 3.87,3.87 0 0 1 -1.21,0.57 1.37,1.37 0 0 1 -1.33,-0.34 1.41,1.41 0 0 1 -0.32,-1.36 3.08,3.08 0 0 1 0.41,-0.88 7.51,7.51 0 0 1 0.49,-0.65 l 0.17,-0.21 a 3.52,3.52 0 1 0 -5.8,-0.51 6.2,6.2 0 0 0 0.47,0.65 c 0.14,0.18 0.28,0.36 0.4,0.54 a 3.76,3.76 0 0 1 0.52,1 1.42,1.42 0 0 1 -0.29,1.41 1.4,1.4 0 0 1 -1.37,0.34 A 4,4 0 0 1 16,16 l -0.13,-0.09 a 12.26,12.26 0 0 0 -2.47,-1.39 4.64,4.64 0 0 0 -2.55,-0.27 2.89,2.89 0 0 0 -2.27,2.2 7.84,7.84 0 0 0 -0.27,3.26 11.29,11.29 0 0 0 0.56,2.63 17.86,17.86 0 0 1 -0.07,-3.93 3.47,3.47 0 0 1 0.77,-2 1.58,1.58 0 0 1 1.77,-0.43 1.35,1.35 0 0 1 0.83,1.48 c 0,0.08 0,0.17 0,0.25 v 0.15 c 0,0.21 0,0.41 -0.07,0.62 a 12.23,12.23 0 0 0 -0.1,1.34 14.78,14.78 0 0 0 0.57,3.93 19.17,19.17 0 0 1 0.07,-4.15 3.58,3.58 0 0 1 0.52,-1.6 1.51,1.51 0 0 1 1.57,-0.68 1.44,1.44 0 0 1 1.25,1.16 4.11,4.11 0 0 1 0.1,1.24 15.72,15.72 0 0 0 0.1,4.2 c 0,0.2 0.08,0.41 0.13,0.61 a 20.28,20.28 0 0 1 0.13,-2.91 7.37,7.37 0 0 1 0.41,-1.76 1.42,1.42 0 0 1 1.24,-0.99 z"
       id="path10"
       inkscape:connector-curvature="0"
       style="fill:#fc3c2d" />
  </g>
</svg>
