<svg id="Vrstva_1" data-name="Vrstva 1" xmlns="http://www.w3.org/2000/svg" viewBox="0 0 41 40"><defs><style>.cls-1{fill:#fc3c2d;}</style></defs><title>Kreslicí plátno 1</title><path class="cls-1" d="M41,40H0V0H41ZM.59,39.41H40.41V.59H.59Z"/><path class="cls-1" d="M33.55,28.68c-.6-2-1.19-3.92-1.81-5.87a17.74,17.74,0,0,1-.88-4.67,10.39,10.39,0,0,0-8.11-9.91c-.49-.11-.73-.23-.67-.78s-.28-.84-.82-.86h-.68c-1.53,0-1.53,0-1.72,1.47a1.64,1.64,0,0,1-.28.1,10.38,10.38,0,0,0-8.45,10.18A11.83,11.83,0,0,1,9.5,22c-.72,2.22-1.38,4.47-2.06,6.7A2.31,2.31,0,0,0,9.14,32a31.82,31.82,0,0,0,4.12.9,51.58,51.58,0,0,0,12.52.22,43.22,43.22,0,0,0,6-1.1C33.53,31.6,34.08,30.42,33.55,28.68ZM22.13,8.88a9.65,9.65,0,0,1,8,9.63c-2.13-2.65-4.94-2.94-8-2.45Zm-3.27,0V10a7.6,7.6,0,0,0-4.2,2.32c-.07.07-.18.15-.2.23s.39.61.53.46a7.24,7.24,0,0,1,3.17-2.1l.75-.21c0,.66,0,1.22,0,1.78,0,.19.69.19.69,0,0-1.7,0-3.4,0-5.15h1.7v9.22h-1.7c0-.58,0-1.17,0-1.76,0-.19-.66-.21-.69,0a9,9,0,0,0,0,1.26c-3.05-.49-5.88-.26-8,2.38A9.55,9.55,0,0,1,18.86,8.88ZM31.74,31.29a47.85,47.85,0,0,1-5.91,1.12A49.58,49.58,0,0,1,14.1,32.3a39.33,39.33,0,0,1-4.86-1,1.56,1.56,0,0,1-1.05-2.4c.66.29,1.29.63,2,.85a27.46,27.46,0,0,0,2.7.7c.18,0,.3-.64.12-.67A15.17,15.17,0,0,1,8.87,28.4c-.39-.19-.49-.37-.35-.81.76-2.43,1.48-4.87,2.21-7.31a5.6,5.6,0,0,1,4.77-3.64,20.8,20.8,0,0,1,2.85.11,2.54,2.54,0,0,1,.74.35,1.9,1.9,0,0,0,.61.24,15.33,15.33,0,0,0,1.62,0c.18,0,.44-.06.51-.18.25-.44.68-.44,1.08-.48a7.81,7.81,0,0,1,4.78.64,5.34,5.34,0,0,1,2.64,3.24c.72,2.31,1.39,4.64,2.13,6.94.17.52,0,.77-.43.93L28.27,29.7c-.12,0-.26,0-.36.09s0,.7.12.66a28.47,28.47,0,0,0,2.76-.7c.68-.22,1.32-.57,2-.87C33.29,30.1,33,31,31.74,31.29Z"/><path class="cls-1" d="M28.44,26.44a.64.64,0,0,0,0-.49c0-.07-.28-.12-.37-.07a1.24,1.24,0,0,0-.36.4l-1.86,2.87c-.25.39-.73.48-1,.14a42.83,42.83,0,0,1-3.46-5.82.45.45,0,0,0-.07-.1,1,1,0,0,0-1.79,0,3.51,3.51,0,0,0-.51.78c-.19.52-2.22,3.88-3,5.08-.28.42-.63.39-.92,0-.62-1-1.24-1.91-1.86-2.87-.16-.25-.32-.63-.69-.37-.1.07,0,.53.09.73.59,1,1.24,1.91,1.83,2.89a1.25,1.25,0,0,1,.13.78,1.11,1.11,0,0,0,.6,1.3,1.16,1.16,0,0,0,1.41-.3,1.22,1.22,0,0,1,.77-.34c2.05,0,4.1,0,6.16,0a.86.86,0,0,1,.83.38.94.94,0,0,0,1.28.3c.32-.19.72-.72.66-1-.19-.78.23-1.25.58-1.79C27.42,28,27.95,27.25,28.44,26.44ZM16,31a.49.49,0,1,1,0-.69A.49.49,0,0,1,16,31Zm2.09-.79a9.38,9.38,0,0,1-1.05,0c-.42,0-.58-.31-.35-.69.41-.68.86-1.34,1.29-2l.11,0Zm2-.05H18.89c0-1.29,0-2.58,0-3.87,0-.55.28-.62,1.21-.43Zm-.31-5.75a.66.66,0,1,1,.66.66A.66.66,0,0,1,19.8,24.42Zm2.29,5.78H20.9V25.88c.87-.27,1.18-.06,1.18.84C22.1,27.86,22.09,29,22.09,30.2Zm1.83,0a5.27,5.27,0,0,1-1.09,0V27.71l.12-.07c.45.7.92,1.38,1.33,2.1C24.32,29.81,24.07,30.17,23.92,30.2Zm1.65.81a.49.49,0,1,1,0-.69A.49.49,0,0,1,25.57,31Z"/><path class="cls-1" d="M21.63,21.13c0,1.06.37,1.56,1.44,1.72.81.12,3.51.12,4,.12,1.29,0,1.87-.81,1.35-2a4.8,4.8,0,0,0-4.61-3,2.19,2.19,0,0,0-2.22,2.38A6.56,6.56,0,0,1,21.63,21.13Zm.73-.37c0-1.65.85-2.33,2.49-2a4.29,4.29,0,0,1,2.86,2.28c.45.81.19,1.19-.72,1.19-.52,0-2.79,0-3.41,0-1-.06-1.22-.35-1.22-1.29Q22.36,20.85,22.36,20.76Z"/><path class="cls-1" d="M13.73,23c.58,0,3.48,0,4.33-.14a1.41,1.41,0,0,0,1.32-1.64q0-.5,0-1a2,2,0,0,0-1.59-2.08,4,4,0,0,0-4,1.2,5.86,5.86,0,0,0-1.3,2.06C12.15,22.32,12.75,23,13.73,23Zm-.48-1.74a3.93,3.93,0,0,1,2.64-2.34,4.66,4.66,0,0,1,2,0,1.06,1.06,0,0,1,.79,1.19c0,.27,0,.54,0,.81,0,1-.24,1.24-1.21,1.3-.62,0-1.24,0-1.86,0H13.92C13.16,22.24,12.92,21.94,13.25,21.24Z"/></svg>