<?xml version="1.0" encoding="UTF-8" standalone="no"?>
<svg
   xmlns:dc="http://purl.org/dc/elements/1.1/"
   xmlns:cc="http://creativecommons.org/ns#"
   xmlns:rdf="http://www.w3.org/1999/02/22-rdf-syntax-ns#"
   xmlns:svg="http://www.w3.org/2000/svg"
   xmlns="http://www.w3.org/2000/svg"
   xmlns:sodipodi="http://sodipodi.sourceforge.net/DTD/sodipodi-0.dtd"
   xmlns:inkscape="http://www.inkscape.org/namespaces/inkscape"
   id="Vrstva_1"
   data-name="Vrstva 1"
   viewBox="0 0 69 68"
   version="1.1"
   sodipodi:docname="on_your_side_big.svg"
   width="69"
   height="68"
   inkscape:version="0.92.2 (5c3e80d, 2017-08-06)">
  <metadata
     id="metadata23">
    <rdf:RDF>
      <cc:Work
         rdf:about="">
        <dc:format>image/svg+xml</dc:format>
        <dc:type
           rdf:resource="http://purl.org/dc/dcmitype/StillImage" />
        <dc:title>Kreslicí plátno 1</dc:title>
      </cc:Work>
    </rdf:RDF>
  </metadata>
  <sodipodi:namedview
     pagecolor="#ffffff"
     bordercolor="#666666"
     borderopacity="1"
     objecttolerance="10"
     gridtolerance="10"
     guidetolerance="10"
     inkscape:pageopacity="0"
     inkscape:pageshadow="2"
     inkscape:window-width="1920"
     inkscape:window-height="1057"
     id="namedview21"
     showgrid="false"
     fit-margin-top="0"
     fit-margin-left="0"
     fit-margin-right="0"
     fit-margin-bottom="0"
     inkscape:zoom="5.9"
     inkscape:cx="87.575198"
     inkscape:cy="20.677966"
     inkscape:window-x="-8"
     inkscape:window-y="-8"
     inkscape:window-maximized="1"
     inkscape:current-layer="Vrstva_1" />
  <defs
     id="defs4">
    <style
       id="style2">.cls-1{fill:#fc3c2d;}</style>
    <style
       id="style837">.cls-1{fill:#fc3c2d;}</style>
    <style
       id="style867">.cls-1{fill:#fc3c2d;}</style>
    <style
       id="style892">.cls-1{fill:#fc3c2d;}</style>
  </defs>
  <title
     id="title6">Kreslicí plátno 1</title>
  <path
     style="fill:#fc3c2d;stroke-width:1.69144177"
     inkscape:connector-curvature="0"
     class="cls-1"
     d="M 69,68 H 0 V 0 H 69 Z M 0.99292725,66.997001 H 68.00707 V 1.003 H 0.99292725 Z"
     id="path898" />
  <path
     style="fill:#fc3c2d;stroke-width:1.65853655"
     inkscape:connector-curvature="0"
     class="cls-1"
     d="m 56.188825,48.40497 c -0.99512,-3.317074 -1.97366,-6.501464 -3.00195,-9.73561 a 29.422439,29.422439 0 0 1 -1.45951,-7.745366 17.232195,17.232195 0 0 0 -13.45073,-16.436098 c -0.81269,-0.182439 -1.21073,-0.381463 -1.11122,-1.293658 0.0995,-0.912195 -0.46439,-1.393171 -1.36,-1.426342 h -1.12781 c -2.53756,0 -2.53756,0 -2.85268,2.438049 a 2.72,2.72 0 0 1 -0.46439,0.165854 17.21561,17.21561 0 0 0 -14.014634,16.883902 19.620488,19.620488 0 0 1 -1.044878,6.070244 c -1.194147,3.681951 -2.288781,7.413659 -3.416586,11.112195 a 3.8312195,3.8312195 0 0 0 2.819513,5.473171 52.774635,52.774635 0 0 0 6.83317,1.492683 85.547318,85.547318 0 0 0 20.764875,0.364878 71.681952,71.681952 0 0 0 9.95122,-1.82439 c 2.90244,-0.696585 3.81464,-2.653659 2.93561,-5.539512 z M 37.248335,15.565945 a 16.004878,16.004878 0 0 1 13.2683,15.971707 c -3.53269,-4.395122 -8.19317,-4.876097 -13.2683,-4.063414 z m -5.42341,0 v 1.857561 a 12.604878,12.604878 0 0 0 -6.965853,3.847805 c -0.116098,0.116097 -0.298537,0.24878 -0.331708,0.381463 -0.03317,0.132683 0.64683,1.011708 0.879025,0.762927 a 12.007805,12.007805 0 0 1 5.257556,-3.482927 l 1.24391,-0.348292 c 0,1.094634 0,2.023414 0,2.952195 0,0.315122 1.14439,0.315122 1.14439,0 0,-2.819512 0,-5.639025 0,-8.541464 h 2.81951 v 15.291708 h -2.81951 c 0,-0.961951 0,-1.940488 0,-2.919025 0,-0.315122 -1.09464,-0.348292 -1.14439,0 a 14.926829,14.926829 0 0 0 0,2.089756 C 26.849315,26.644969 22.155657,27.026433 18.639559,31.40497 A 15.839025,15.839025 0 0 1 31.824925,15.565945 Z m 21.36195,37.167805 a 79.360976,79.360976 0 0 1 -9.80195,1.857561 82.230245,82.230245 0 0 1 -19.454634,-0.182439 65.230244,65.230244 0 0 1 -8.060488,-1.658536 2.5873171,2.5873171 0 0 1 -1.741463,-3.980488 c 1.094634,0.480975 2.139512,1.044878 3.317073,1.409756 a 45.543415,45.543415 0 0 0 4.478049,1.160975 c 0.298536,0 0.497561,-1.061463 0.199024,-1.111219 a 25.16,25.16 0 0 1 -6.866341,-2.288781 c -0.64683,-0.315122 -0.812683,-0.613658 -0.580488,-1.343414 1.260488,-4.030244 2.454634,-8.077073 3.665366,-12.123903 a 9.287805,9.287805 0 0 1 7.911222,-6.037073 34.497561,34.497561 0 0 1 4.72683,0.182439 4.212683,4.212683 0 0 1 1.22731,0.580488 3.1512195,3.1512195 0 0 0 1.01171,0.398049 25.425366,25.425366 0 0 0 2.68683,0 c 0.29854,0 0.72976,-0.09951 0.84585,-0.298537 0.41464,-0.729756 1.12781,-0.729756 1.79122,-0.796098 a 12.953171,12.953171 0 0 1 7.92781,1.061464 8.8565854,8.8565854 0 0 1 4.37854,5.373658 c 1.19414,3.83122 2.30536,7.69561 3.53268,11.510244 0.28195,0.86244 0,1.277074 -0.71317,1.54244 l -6.2361,2.106341 c -0.19902,0 -0.43122,0 -0.59707,0.149268 -0.16586,0.149269 0,1.160976 0.19902,1.094634 a 47.218537,47.218537 0 0 0 4.57756,-1.160975 c 1.12781,-0.364878 2.18927,-0.945366 3.31708,-1.442927 0.82926,2.023415 0.34829,3.516098 -1.74147,3.997073 z"
     id="path900" />
  <path
     style="fill:#fc3c2d;stroke-width:1.65853655"
     inkscape:connector-curvature="0"
     class="cls-1"
     d="m 47.713705,44.689848 a 1.0614634,1.0614634 0 0 0 0,-0.812683 c 0,-0.116098 -0.46439,-0.199025 -0.61366,-0.116098 a 2.0565854,2.0565854 0 0 0 -0.59707,0.663415 l -3.08488,4.76 c -0.41463,0.646829 -1.21073,0.796097 -1.65854,0.232195 a 71.035123,71.035123 0 0 1 -5.73853,-9.652683 0.74634147,0.74634147 0 0 0 -0.1161,-0.165854 1.6585366,1.6585366 0 0 0 -2.96878,0 5.8214635,5.8214635 0 0 0 -0.84585,1.293659 c -0.31513,0.862439 -3.68196,6.435122 -4.97561,8.425366 -0.46439,0.696585 -1.04488,0.646829 -1.52586,0 -1.02829,-1.658537 -2.056583,-3.167805 -3.084875,-4.76 -0.265366,-0.414634 -0.530732,-1.044878 -1.144391,-0.613659 -0.165853,0.116098 0,0.879025 0.149269,1.210732 0.978536,1.658537 2.056585,3.167805 3.035122,4.793171 a 2.0731707,2.0731707 0 0 1 0.215609,1.293658 1.8409756,1.8409756 0 0 0 0.995126,2.156098 1.9239025,1.9239025 0 0 0 2.33853,-0.497561 2.0234147,2.0234147 0 0 1 1.27708,-0.563903 c 3.4,0 6.8,0 10.21658,0 a 1.4263415,1.4263415 0 0 1 1.37659,0.630244 1.5590244,1.5590244 0 0 0 2.12292,0.497561 c 0.53074,-0.315122 1.19415,-1.194146 1.09464,-1.658536 -0.31512,-1.293659 0.38146,-2.073171 0.96195,-2.968781 0.87902,-1.559024 1.75805,-2.802927 2.57073,-4.146341 z m -20.63219,7.562927 a 0.81268293,0.81268293 0 1 1 0,-1.144391 0.81268293,0.81268293 0 0 1 0,1.144391 z m 3.46634,-1.310244 a 15.557073,15.557073 0 0 1 -1.74147,0 c -0.69658,0 -0.96195,-0.514147 -0.58048,-1.144391 0.68,-1.127804 1.42634,-2.222439 2.13951,-3.317073 h 0.18244 z m 3.31707,-0.08293 h -1.99024 c 0,-2.139512 0,-4.279025 0,-6.418537 0,-0.912195 0.46439,-1.028292 2.00683,-0.713171 z m -0.51415,-9.536586 a 1.0946342,1.0946342 0 1 1 1.09464,1.094635 1.0946342,1.0946342 0 0 1 -1.06147,-1.078049 z m 3.79805,9.586342 h -1.94049 v -7.148293 c 1.44293,-0.447805 1.95708,-0.09951 1.95708,1.393171 0.0332,1.890732 0.0166,3.781463 0.0166,5.771707 z m 3.03512,0 a 8.7404879,8.7404879 0 0 1 -1.8078,0 v -4.113171 l 0.19902,-0.116097 c 0.74635,1.160975 1.52586,2.28878 2.20586,3.482926 0.0995,0.116098 -0.31512,0.713171 -0.5639,0.762927 z m 2.73659,1.343415 a 0.81268293,0.81268293 0 1 1 0,-1.144391 0.81268293,0.81268293 0 0 1 0.0332,1.144391 z"
     id="path902" />
  <path
     style="fill:#fc3c2d;stroke-width:1.65853655"
     inkscape:connector-curvature="0"
     class="cls-1"
     d="m 36.419075,35.883018 c 0,1.758049 0.61366,2.587317 2.38829,2.852683 1.34341,0.199025 5.82146,0.199025 6.63415,0.199025 2.13951,0 3.10146,-1.343415 2.23902,-3.317073 a 7.9609757,7.9609757 0 0 0 -7.64585,-4.97561 3.6321952,3.6321952 0 0 0 -3.68195,3.947317 10.88,10.88 0 0 1 0.0663,1.293658 z m 1.21073,-0.613658 c 0,-2.736586 1.40975,-3.86439 4.12975,-3.317073 a 7.115122,7.115122 0 0 1 4.74342,3.781463 c 0.74634,1.343415 0.31512,1.973659 -1.19415,1.973659 -0.86244,0 -4.62731,0 -5.65561,0 -1.65853,-0.09951 -2.02341,-0.580488 -2.02341,-2.139513 q 0,-0.149268 0,-0.298536 z"
     id="path904" />
  <path
     style="fill:#fc3c2d;stroke-width:1.65853655"
     inkscape:connector-curvature="0"
     class="cls-1"
     d="m 23.316633,38.984482 c 0.961951,0 5.771702,0 7.181462,-0.232195 a 2.3385366,2.3385366 0 0 0 2.18927,-2.72 q 0,-0.829269 0,-1.658537 a 3.3170732,3.3170732 0 0 0 -2.63707,-3.449756 6.6341464,6.6341464 0 0 0 -6.63415,1.990244 9.7190245,9.7190245 0 0 0 -2.156098,3.416585 c -0.563902,1.525854 0.43122,2.653659 2.056586,2.653659 z m -0.796098,-2.885854 a 6.5180488,6.5180488 0 0 1 4.37854,-3.880976 7.7287806,7.7287806 0 0 1 3.31707,0 1.7580488,1.7580488 0 0 1 1.31024,1.973659 c 0,0.447805 0,0.89561 0,1.343415 0,1.658536 -0.39805,2.056585 -2.00683,2.156097 -1.02829,0 -2.05658,0 -3.08487,0 h -2.802931 c -1.260487,0.03317 -1.658536,-0.46439 -1.111219,-1.625366 z"
     id="path906" />
</svg>
